<svg xmlns="http://www.w3.org/2000/svg" width="1254" height="1254" viewBox="0 0 1254 1254" fill="none"><metadata><rdf:RDF xmlns:rdf="http://www.w3.org/1999/02/22-rdf-syntax-ns#" xmlns:dc="http://purl.org/dc/elements/1.1/"><rdf:Description><dc:creator>RealFaviconGenerator</dc:creator><dc:source>https://realfavicongenerator.net</dc:source></rdf:Description></rdf:RDF></metadata><path d="M0 0H20.4429H41.048H101.61H121.202H141.657H161.133H181.776H202.091H302.876H322.74H423.553H443.257H463.614H483.291H503.749H523.837H583.541H603.744H663.028H683.191H702.999H723.181H1223.96H1243.69H1254V1254H0V1209.22V1189.41V1129.02V1109.64V927.048V907.974V887.168V867.568V806.913V786.854V766.557V746.638V726.053V706.428V645.724V626.339V606.016V586.104V566.082V484.945V445.176V424.962V323.28V303.161V282.803V263.101V242.458V222.234V202.159V181.94V39.9689V20.1503V0Z" fill="#FDFDFD"></path><path d="M576.551 60.1019C597.323 47.9555 621.563 26.3846 646.318 39.7389C662.459 48.4446 678.06 58.5982 693.79 68.081L778.093 118.817L1007.86 257.744L1071.64 296.534C1084.14 304.072 1096.74 311.664 1109.17 319.326C1113.65 322.361 1117.4 326.6 1120.07 331.29C1123.25 336.865 1124.98 343.243 1125.13 349.652C1125.49 363.901 1125.34 378.193 1125.33 392.441L1125.29 469.607L1125.31 705.523V829.331L1125.32 868.947C1125.32 891.259 1127.92 913.094 1106.12 926.026C1100.82 929.167 1095.39 932.712 1090.12 935.957L1053.98 958.196L934.279 1031.4L749.394 1144.19L680.681 1185.97C663.659 1196.26 640.538 1215.18 619.891 1209.32C609.054 1206.24 593.463 1195.86 583.465 1189.79L538.574 1162.33L374.723 1062.07L210.717 962.042C190.112 949.318 169.352 936.839 148.812 924.005C137.232 916.774 130.293 903.695 130.378 890.065L130.346 492.512L130.316 396.6C130.303 384.267 129.425 353.981 131.711 343.821C137.427 325.781 146.437 321.75 161.962 312.841L161.961 303.069C167.193 302.985 172.131 302.825 177.365 303.27L182.019 300.497C182.073 294.634 182.053 288.772 181.958 282.909L201.991 282.809C202.33 276.428 202.112 268.992 202.074 262.53C208.33 263.306 215.324 262.976 221.6 262.663C221.66 266.234 221.429 272.402 222.858 275.394L262.424 251.213L262.584 242.414C266.385 242.471 271.076 242.43 274.616 243.71L282.53 238.999C282.763 233.458 282.742 227.785 282.784 222.23C289.493 222.243 296.201 222.156 302.907 221.967C303.027 217.071 302.155 207.579 304.343 203.819C307.517 201.385 317.773 202.299 322.59 202.195C322.559 205.528 322.031 211.314 324.137 213.658C336.98 206.182 350.245 197.831 362.966 190.055L363.102 182.393C366.52 182.342 371.416 181.839 374.384 183.049L382.979 177.928C390.518 173.922 402.196 166.233 409.717 161.622L463.221 128.991L463.255 121.26C467.982 121.132 470.149 120.961 474.799 121.859L477.04 120.474C496.926 108.922 516.412 96.2629 536.236 84.5544C541.355 81.5309 548.882 77.3813 553.485 73.8624C556.396 72.4222 560.945 69.5101 563.867 67.7601C563.665 64.7213 563.08 63.1715 565.257 60.962C567.904 59.9332 572.418 60.5666 575.464 60.7448L576.551 60.1019Z" fill="#022753"></path><path d="M202.073 262.529C208.33 263.305 215.324 262.975 221.6 262.662C221.66 266.234 221.428 272.401 222.858 275.394C209.201 283.691 195.589 292.058 182.019 300.496C182.073 294.634 182.053 288.771 181.958 282.909L201.991 282.808C202.33 276.427 202.111 268.991 202.073 262.529Z" fill="#F2F1F1"></path><path d="M302.907 221.965C303.027 217.069 302.155 207.577 304.343 203.818C307.517 201.383 317.773 202.298 322.59 202.194C322.559 205.527 322.031 211.313 324.137 213.656L282.53 238.997C282.763 233.457 282.742 227.784 282.784 222.229C289.493 222.242 296.201 222.155 302.907 221.965Z" fill="#F2F1F1"></path><path d="M161.961 303.069C167.193 302.985 172.131 302.825 177.365 303.269C172.312 306.588 167.176 309.78 161.962 312.84L161.961 303.069Z" fill="#F2F1F1"></path><path d="M262.584 242.414C266.384 242.472 271.076 242.43 274.616 243.71C270.59 246.242 266.541 248.844 262.423 251.213L262.584 242.414Z" fill="#F2F1F1"></path><path d="M463.254 121.26C467.982 121.131 470.148 120.961 474.799 121.859L463.221 128.991L463.254 121.26Z" fill="#F2F1F1"></path><path d="M363.102 182.393C366.52 182.342 371.416 181.839 374.384 183.049C370.604 185.461 366.896 187.895 362.966 190.055L363.102 182.393Z" fill="#F2F1F1"></path><path d="M563.867 67.7604C563.665 64.7215 563.08 63.1718 565.257 60.9622C567.904 59.9335 572.418 60.5668 575.464 60.7451C571.613 63.4222 567.949 65.4452 563.867 67.7604Z" fill="#F2F1F1"></path><path d="M624.128 66.2211C626.553 66.049 628.941 65.8782 631.341 66.3301C640.281 68.009 681.611 94.9363 691.77 101.094L771.185 149.225L1025 303.002C1044.67 315.084 1064.49 326.972 1084.13 339.089C1087.08 340.912 1090.03 342.743 1091.89 345.766C1094.11 349.364 1095.28 354.133 1095.3 358.334C1095.37 372.474 1095.32 386.654 1095.32 400.79L1095.3 485.138L1095.27 738.132L1095.29 845.2C1095.29 855.303 1097.68 896.15 1090.21 900.975C1051.6 925.877 1012.05 949.714 972.915 973.821L747.22 1112.07L682.775 1151.58C674.27 1156.81 639.148 1179.38 631.525 1181.32C621.93 1181.23 616.609 1176.34 608.671 1171.44L581.009 1154.4L478.086 1091.32L280.172 970.257L209.083 926.594C196.084 918.621 182.973 910.741 170.054 902.653C166.364 900.338 164.29 898.109 162.662 894.099C161.287 890.713 160.873 888.925 160.851 885.239C160.676 855.321 160.786 825.276 160.791 795.358L160.792 621.292L160.786 446.216C160.787 417.521 159.9 388.549 160.789 359.887C160.903 356.206 161.625 352.055 163.164 348.686C165.544 343.476 227.134 307.45 236.874 301.446L514.302 132.017L589.12 86.4277C595.567 82.5157 618.011 68.3525 624.128 66.2211Z" fill="#FDFDFD"></path><path d="M526.531 218.081C537.949 217.699 579.818 216.433 588.45 219.059C599.058 222.285 619.456 244.134 624.728 253.833C626.884 257.794 627.943 261.787 628.102 266.267C628.531 278.277 628.212 290.378 628.212 302.401L628.2 370.055L628.225 576.203L628.2 701.211C628.194 711.638 629.657 752.663 626.865 761.59C623.547 772.177 597.559 796.571 587.716 803.386C583.671 806.184 564.648 804.929 559.27 805.07C552.083 804.904 526.441 806.313 522.637 803.674C510.005 794.899 486.513 773.365 480.45 759.63C478.96 758.743 476.047 759.061 474.136 759.092C464.968 759.073 455.801 759.122 446.633 759.232C434.851 759.288 430.705 760.31 421.793 751.505C412.702 742.523 403.444 733.301 394.199 724.448C385.015 715.655 385.11 712.305 385.362 699.919C385.386 691.028 385.315 682.009 385.288 673.24C379.903 673.467 375.389 674.128 370.943 670.54C365.053 665.795 335.223 637.745 331.946 632.302C331.033 630.789 330.873 628.983 330.7 627.269C329.98 620.129 329.457 553.224 331.229 548.518C334.503 539.82 343.782 530.832 349.722 523.57C348.965 522.472 347.234 520.301 347.197 518.94C346.471 492.205 346.355 465.159 347.206 438.436C347.268 436.492 349.875 432.625 351.214 431.151C362.852 418.347 374.355 405.02 386.74 392.972C388.224 391.528 392.15 391.084 394.157 390.799C394.061 381.934 393.209 348.178 394.696 342.241C396.137 336.486 435.279 295.769 440.706 292.822C451.507 292.157 466.617 292.607 477.716 292.586C477.626 285.311 476.348 264.044 480.477 259.533C489.946 249.189 513.558 220.861 526.531 218.081Z" fill="#022753"></path><path d="M528.902 234.521C543.032 233.561 559.879 234.626 574.267 234.161C585.858 233.392 591.192 240.492 598.633 247.832C612.296 261.312 611.918 265.047 611.922 282.941L611.893 313.193L611.861 418.046L611.873 631.047C611.902 671.956 612.623 714.847 611.638 755.566C607.514 762.405 586.996 784.222 580.413 788.538C566.291 789.377 543.248 788.881 528.699 788.514C519.766 781.583 501.585 763.409 496.201 753.949C491.823 746.259 526.433 726.561 503.204 721.264C499.016 720.309 484.521 738.758 481.404 742.218C469.433 743.069 448.402 742.536 435.989 742.389L401.612 708.149C401.737 693.637 401.709 679.126 401.528 664.62C404.908 659.452 413.358 649.821 417.607 644.806C426.161 634.697 434.921 623.871 443.725 614.038L477.423 614.16C485.841 614.191 509.991 616.689 498.962 600.499C496.81 597.341 443.21 598.617 437.39 598.871C431.585 603.056 422.022 615.428 416.884 621.502L391.505 651.094C390.62 652.19 389.723 653.274 388.726 654.272C386.904 656.091 384.977 657.554 382.232 657.315C378.577 657.003 350.808 628.586 346.606 624.024L346.591 553.963C350.791 547.255 362.901 532.689 368.37 525.869C386.064 525.603 403.778 526.34 421.476 525.738C431.919 525.384 431.686 512.096 424.403 510.736C418.327 509.602 407.731 510.006 401.247 510.016L363.057 510.051L363.125 443.222C369.043 435.047 388.185 414.67 395.871 407.05L418.673 407.172C424.453 411.722 439.759 426.858 444.241 425.905C467.729 420.911 428.022 394.004 424.327 391.347C419.9 390.829 414.742 390.929 410.226 390.9C410.1 376.515 410.109 362.128 410.254 347.742C417.044 338.813 437.375 318.249 445.788 309.298C453.818 308.408 469.283 308.833 477.737 308.819C477.652 314.259 476.437 333.669 479.735 337.097C491.763 349.6 508.65 358.671 521.542 370.508L522.177 371.097C521.724 390.665 522.147 411.788 522.193 431.496C515.686 439.258 507.026 446.212 500.244 453.853C496.217 458.09 493.309 462.869 498.539 467.602C504.527 473.02 511.768 464.336 515.738 460.051C522.107 453.177 531.437 445.302 536.807 437.871C537.381 427.599 536.8 414.531 536.906 404.075C536.969 397.897 537.829 363.867 535.018 361.117C522.59 348.961 506.448 339.365 493.544 327.456C493.761 314.965 493.438 302.348 493.536 289.857C493.587 283.366 493.247 275.654 493.923 269.29C499.636 261.838 521.467 240.194 528.902 234.521Z" fill="#FDFDFD"></path><path d="M683.265 240.198C697.066 238.5 709.655 248.261 711.443 262.053C713.237 275.844 703.556 288.494 689.78 290.377C675.868 292.278 663.071 282.489 661.264 268.566C659.458 254.644 669.329 241.911 683.265 240.198Z" fill="#022753"></path><path d="M786.922 657.101C794.067 650.121 804.936 648.62 813.71 653.396C822.484 658.172 827.119 668.116 825.135 677.907C823.152 687.698 815.014 695.058 805.076 696.043C795.132 697.029 785.709 691.42 781.839 682.205C778.215 673.59 780.229 663.634 786.922 657.101Z" fill="#022753"></path><path d="M803.105 322.878C815.498 320.899 827.15 329.325 829.159 341.712C831.167 354.1 822.76 365.773 810.379 367.805C797.962 369.844 786.242 361.412 784.234 348.987C782.219 336.561 790.675 324.863 803.105 322.878Z" fill="#022753"></path><path d="M796.357 484.772C808.615 482.027 820.77 489.769 823.464 502.038C826.164 514.307 818.376 526.431 806.093 529.079C793.883 531.713 781.839 523.976 779.158 511.774C776.476 499.573 784.166 487.501 796.357 484.772Z" fill="#022753"></path><path d="M700.905 741.489C705.228 752.291 700.679 764.61 690.374 770.005C680.068 775.405 667.351 772.123 660.934 762.418C654.523 752.713 656.495 739.726 665.502 732.366C674.509 725 687.624 725.649 695.866 733.86C698.046 736.034 699.76 738.63 700.905 741.489Z" fill="#022753"></path><path d="M674.98 400.749C687.208 398.685 698.824 406.842 701.04 419.048C703.251 431.254 695.235 442.97 683.057 445.331C675.048 446.884 666.818 444.009 661.522 437.805C656.219 431.601 654.664 423.026 657.45 415.355C660.236 407.686 666.929 402.106 674.98 400.749Z" fill="#022753"></path><path d="M891.081 711.976C903.315 710.121 914.771 718.423 916.816 730.633C918.855 742.836 910.724 754.415 898.551 756.644C890.512 758.113 882.307 755.137 877.078 748.861C871.849 742.579 870.404 733.97 873.306 726.328C876.208 718.687 882.999 713.207 891.081 711.976Z" fill="#042754"></path><path d="M673.045 560.596C685.187 557.566 697.476 565.008 700.415 577.173C703.361 589.339 695.829 601.573 683.644 604.427C671.582 607.252 659.495 599.815 656.587 587.773C653.672 575.731 661.02 563.595 673.045 560.596Z" fill="#022753"></path><path d="M919.21 414.727C931.456 412.716 943.016 420.974 945.092 433.203C947.162 445.433 938.963 457.039 926.741 459.172C914.434 461.319 902.733 453.049 900.645 440.733C898.557 428.417 906.884 416.753 919.21 414.727Z" fill="#022753"></path><path d="M920.037 573.957C932.301 572.186 943.696 580.655 945.533 592.909C947.376 605.164 938.975 616.602 926.729 618.519C914.385 620.442 902.831 611.957 900.976 599.602C899.12 587.247 907.674 575.74 920.037 573.957Z" fill="#032653"></path><path d="M781.233 652.564C784.123 652.595 786.162 654.248 786.922 657.102C780.229 663.635 778.215 673.591 781.839 682.206L780.064 682.494C781.221 685.084 782.225 687.319 783.56 689.835L732.102 721.718C722.617 727.547 711.504 733.946 702.344 740.044C701.095 740.871 701.432 740.326 700.905 741.489C699.76 738.63 698.046 736.034 695.866 733.86C696.729 732.574 697.55 731.631 698.903 730.805C725.789 714.432 752.167 696.773 779.647 681.49C779.843 681.416 780.039 681.343 780.235 681.263C776.316 671.852 781.258 666.85 780.511 663.831L779.298 663.464L779.231 662.435C780.958 662.037 783.842 657.855 785.293 656.116C783.738 654.891 782.574 654.052 781.233 652.564Z" fill="#022753"></path><path d="M781.233 652.564C784.123 652.595 786.162 654.248 786.922 657.102C780.229 663.635 778.215 673.591 781.839 682.206L780.064 682.494C772.906 685.855 757.543 695.891 750.073 700.526L697.684 733.034C700.042 735.966 700.605 736.677 702.344 740.044C701.095 740.871 701.432 740.326 700.905 741.489C699.76 738.63 698.046 736.034 695.866 733.86C696.729 732.574 697.55 731.631 698.903 730.805C725.789 714.432 752.167 696.773 779.647 681.49C779.843 681.416 780.039 681.343 780.235 681.263C776.316 671.852 781.258 666.85 780.511 663.831L779.298 663.464L779.231 662.435C780.958 662.037 783.842 657.855 785.293 656.116C783.738 654.891 782.574 654.052 781.233 652.564Z" fill="#F2F1F1"></path><path d="M674.184 607.436L682.799 607.281C682.934 646.52 683.295 685.757 683.877 724.987L675.164 725.195C674.092 687.336 674.386 645.638 674.184 607.436Z" fill="#022753"></path><path d="M796.854 531.923L805.609 531.869C805.671 570.741 806.038 609.61 806.724 648.474L797.968 648.964L796.854 531.923Z" fill="#022753"></path><path d="M801.66 369.701C804.421 370.214 807.244 370.233 810.055 370.355L807.287 449.771C807.079 455.508 806.577 477.899 805.579 482.185L797.478 482.33C797.392 447.024 800.209 405.215 801.66 369.701Z" fill="#022753"></path><path d="M674.184 448.097L682.817 448.037L682.762 557.802L674.153 557.822L674.184 448.097Z" fill="#022753"></path><path d="M918.91 461.346L926.858 461.661C927.231 497.472 927.617 535.592 927.152 571.302C924.366 571.33 921.365 571.496 918.561 571.595L918.408 491.992C918.408 486.777 918.077 464.807 918.91 461.346Z" fill="#022753"></path><path d="M680.852 292.623L689.431 292.661L686.865 347.918C686.014 364.355 684.795 381.853 684.446 398.23C681.66 398.137 678.623 398.188 675.813 398.176C676.646 363.981 679.199 327.033 680.852 292.623Z" fill="#022753"></path><path d="M700.875 593.189C720.089 606.216 739.848 622.53 758.94 636.166C766.128 641.304 773.892 647.88 781.234 652.564C782.575 654.052 783.738 654.891 785.293 656.115C783.842 657.854 780.958 662.036 779.231 662.434C777.027 659.648 755.952 644.286 751.163 640.838C732.935 627.711 714.511 613.04 696.117 600.312C698.058 598.013 699.313 595.749 700.875 593.189Z" fill="#022753"></path><path d="M823.507 518.275C826.734 519.806 845.231 534.01 849.273 537.046L905.219 579.06L900.62 585.867C899.016 585.676 825.54 529.814 819.006 524.94C820.549 522.83 822.056 520.466 823.507 518.275Z" fill="#022753"></path><path d="M828.975 356.809C854.765 377.262 880.439 397.861 905.996 418.604C904.221 420.744 902.451 423.095 900.731 425.299C898.747 424.777 833.769 370.883 823.85 363.904C825.76 361.627 827.303 359.258 828.975 356.809Z" fill="#022753"></path><path d="M783.425 354.449C784.766 356.562 786.211 359.535 787.399 361.807C761.376 378.254 728.379 398.234 701.713 413.267C700.017 410.183 699.007 408.822 696.943 406.082C724.142 391.377 756.637 370.765 783.425 354.449Z" fill="#022753"></path><path d="M701.419 433.82C728.814 451.268 755.835 472.178 782.96 490.126L778.233 497.539C752.951 478.594 722.77 458.522 696.613 440.363C698.878 437.95 699.687 436.559 701.419 433.82Z" fill="#022753"></path><path d="M899.616 605.463L900.131 605.589C901.582 607.483 903.039 610.428 904.203 612.593C877.935 629.113 851.759 645.786 825.687 662.612C823.935 660.346 822.209 658.068 820.5 655.772C844.356 639.442 874.855 621.146 899.616 605.463Z" fill="#022753"></path><path d="M711.106 277.203C737.013 293.892 762.423 311.769 788.354 328.489C786.597 330.826 785.244 333.124 783.719 335.607C757.843 318.706 732.12 301.568 706.557 284.194C708.1 282.068 709.673 279.446 711.106 277.203Z" fill="#022753"></path><path d="M914.526 620.002L923.221 621.214C916.222 650.066 909.615 681.826 903.645 711.039C900.866 710.243 898.043 709.845 895.189 709.362C901.41 679.561 908.47 649.723 914.526 620.002Z" fill="#022753"></path><path d="M898.294 444.457C899.568 444.895 901.888 449.877 902.703 451.387C900.155 453.04 897.406 454.565 894.798 456.125C871.591 470.002 847.809 483.12 824.781 497.269C823.525 496.298 820.991 491.81 819.974 490.175C844.564 474.858 872.994 458.913 898.294 444.457Z" fill="#022753"></path><path d="M777.939 515.596C779.354 518.356 780.585 520.223 782.256 522.803L701.695 572.337C700.134 569.924 698.456 568.027 696.619 565.829C703.177 560.799 715.435 553.972 722.728 549.445C741.017 538.084 759.821 527.256 777.939 515.596Z" fill="#022753"></path><path d="M825.705 683.625C842.292 694.769 859.437 706.648 876.232 717.387C874.671 719.678 873.122 722.31 871.652 724.686C855.261 713.291 837.951 702.153 821.309 690.96C822.803 688.585 824.266 686.044 825.705 683.625Z" fill="#022753"></path><path d="M391.222 1010.18C381.42 1010.18 373.016 1008.83 366.009 1006.13C359.048 1003.48 353.509 999.86 349.389 995.267C345.27 990.674 342.595 985.513 341.364 979.784L369.347 976.02C370.199 978.198 371.548 980.234 373.395 982.128C375.241 984.022 377.68 985.537 380.71 986.673C383.788 987.857 387.528 988.449 391.932 988.449C398.513 988.449 403.935 986.839 408.196 983.619C412.505 980.447 414.659 975.12 414.659 967.639V947.682H413.381C412.055 950.712 410.066 953.577 407.415 956.276C404.763 958.974 401.354 961.176 397.188 962.881C393.021 964.585 388.049 965.438 382.273 965.438C374.081 965.438 366.624 963.544 359.901 959.756C353.224 955.92 347.898 950.073 343.92 942.213C339.991 934.306 338.026 924.315 338.026 912.241C338.026 899.884 340.038 889.562 344.062 881.276C348.087 872.99 353.438 866.787 360.114 862.668C366.837 858.548 374.2 856.489 382.202 856.489C388.31 856.489 393.423 857.53 397.543 859.614C401.662 861.65 404.976 864.206 407.486 867.284C410.043 870.314 412.008 873.297 413.381 876.233H414.517V857.909H444.56V968.065C444.56 977.346 442.287 985.111 437.741 991.361C433.196 997.611 426.899 1002.3 418.849 1005.42C410.848 1008.6 401.638 1010.18 391.222 1010.18ZM391.861 942.71C396.738 942.71 400.857 941.503 404.219 939.088C407.628 936.626 410.232 933.122 412.031 928.577C413.878 923.984 414.801 918.491 414.801 912.099C414.801 905.707 413.902 900.168 412.102 895.48C410.303 890.745 407.699 887.076 404.29 884.472C400.881 881.867 396.738 880.565 391.861 880.565C386.889 880.565 382.699 881.915 379.29 884.614C375.881 887.265 373.3 890.958 371.548 895.693C369.796 900.428 368.92 905.897 368.92 912.099C368.92 918.397 369.796 923.842 371.548 928.435C373.348 932.98 375.928 936.508 379.29 939.017C382.699 941.479 386.889 942.71 391.861 942.71ZM468.636 1007.91V857.909H498.466V876.233H499.815C501.141 873.297 503.059 870.314 505.568 867.284C508.125 864.206 511.439 861.65 515.511 859.614C519.631 857.53 524.744 856.489 530.852 856.489C538.807 856.489 546.146 858.572 552.869 862.739C559.593 866.858 564.967 873.084 568.991 881.418C573.016 889.704 575.028 900.097 575.028 912.597C575.028 924.765 573.063 935.04 569.134 943.42C565.251 951.754 559.948 958.075 553.224 962.384C546.548 966.645 539.067 968.776 530.781 968.776C524.91 968.776 519.915 967.805 515.795 965.864C511.723 963.922 508.385 961.484 505.781 958.548C503.177 955.565 501.188 952.559 499.815 949.528H498.892V1007.91H468.636ZM498.253 912.455C498.253 918.941 499.152 924.599 500.952 929.429C502.751 934.259 505.355 938.023 508.764 940.722C512.173 943.373 516.316 944.699 521.193 944.699C526.117 944.699 530.284 943.349 533.693 940.651C537.102 937.904 539.683 934.116 541.435 929.287C543.234 924.41 544.134 918.799 544.134 912.455C544.134 906.157 543.258 900.617 541.506 895.835C539.754 891.053 537.173 887.312 533.764 884.614C530.355 881.915 526.165 880.565 521.193 880.565C516.269 880.565 512.102 881.867 508.693 884.472C505.331 887.076 502.751 890.769 500.952 895.551C499.152 900.333 498.253 905.968 498.253 912.455ZM648.679 968.989C638.073 968.989 628.627 967.166 620.341 963.52C612.102 959.827 605.592 954.76 600.81 948.321C596.075 941.834 593.636 934.353 593.494 925.878H624.46C624.65 929.429 625.81 932.554 627.94 935.253C630.118 937.904 633.007 939.964 636.605 941.432C640.204 942.9 644.252 943.634 648.75 943.634C653.438 943.634 657.58 942.805 661.179 941.148C664.777 939.491 667.595 937.194 669.631 934.259C671.667 931.323 672.685 927.937 672.685 924.102C672.685 920.22 671.596 916.787 669.418 913.804C667.287 910.774 664.209 908.406 660.185 906.702C656.207 904.997 651.473 904.145 645.98 904.145H632.415V881.56H645.98C650.62 881.56 654.716 880.755 658.267 879.145C661.866 877.535 664.659 875.31 666.648 872.469C668.636 869.58 669.631 866.219 669.631 862.384C669.631 858.738 668.755 855.542 667.003 852.795C665.298 850.002 662.884 847.824 659.759 846.261C656.681 844.699 653.082 843.918 648.963 843.918C644.796 843.918 640.985 844.675 637.528 846.19C634.072 847.658 631.302 849.765 629.219 852.511C627.135 855.258 626.023 858.477 625.881 862.17H596.406C596.548 853.79 598.939 846.403 603.58 840.011C608.22 833.619 614.47 828.624 622.33 825.026C630.237 821.38 639.162 819.557 649.105 819.557C659.143 819.557 667.926 821.38 675.455 825.026C682.983 828.671 688.83 833.596 692.997 839.798C697.211 845.954 699.295 852.866 699.247 860.537C699.295 868.681 696.761 875.475 691.648 880.92C686.581 886.366 679.976 889.822 671.832 891.29V892.426C682.533 893.799 690.677 897.516 696.264 903.577C701.899 909.59 704.692 917.118 704.645 926.162C704.692 934.448 702.301 941.811 697.472 948.25C692.689 954.689 686.084 959.756 677.656 963.449C669.228 967.142 659.569 968.989 648.679 968.989ZM727.035 967V857.909H755.87V877.156H757.148C759.421 870.764 763.209 865.722 768.512 862.028C773.815 858.335 780.16 856.489 787.546 856.489C795.027 856.489 801.396 858.359 806.651 862.099C811.907 865.793 815.411 870.812 817.163 877.156H818.299C820.524 870.906 824.549 865.911 830.373 862.17C836.244 858.383 843.181 856.489 851.183 856.489C861.362 856.489 869.625 859.732 875.969 866.219C882.362 872.658 885.558 881.796 885.558 893.634V967H855.373V899.599C855.373 893.539 853.763 888.993 850.543 885.963C847.324 882.933 843.299 881.418 838.469 881.418C832.977 881.418 828.692 883.17 825.614 886.673C822.537 890.13 820.998 894.699 820.998 900.381V967H791.665V898.96C791.665 893.61 790.127 889.348 787.049 886.176C784.019 883.004 780.018 881.418 775.046 881.418C771.684 881.418 768.654 882.27 765.955 883.974C763.304 885.632 761.197 887.975 759.634 891.006C758.072 893.989 757.29 897.492 757.29 901.517V967H727.035ZM939.712 821.545V967H909.457V821.545H939.712Z" fill="#022753"></path></svg>